<?xml version="1.0" standalone="no"?>
<!DOCTYPE svg PUBLIC "-//W3C//DTD SVG 20010904//EN"
 "http://www.w3.org/TR/2001/REC-SVG-20010904/DTD/svg10.dtd">
<svg version="1.0" xmlns="http://www.w3.org/2000/svg"
 width="900.000000pt" height="900.000000pt" viewBox="0 0 900.000000 900.000000"
 preserveAspectRatio="xMidYMid meet">
<metadata>
Created by potrace 1.10, written by Peter Selinger 2001-2011
</metadata>
<g transform="translate(0.000000,900.000000) scale(0.100000,-0.100000)"
fill="#00d8ff" stroke="none">
<path d="M7130 8891 c-57 -31 -148 -134 -181 -206 -26 -58 -42 -109 -109 -362
-26 -96 -109 -415 -121 -463 -4 -19 -24 -96 -44 -170 -19 -74 -44 -173 -55
-220 -11 -47 -29 -125 -40 -175 -12 -49 -26 -115 -32 -145 -6 -30 -15 -63 -20
-72 -4 -9 -18 -63 -29 -120 -12 -57 -25 -121 -30 -143 -28 -126 -106 -560
-149 -835 -40 -255 -79 -442 -105 -508 -29 -71 -51 -80 -221 -90 -82 -5 -312
-9 -511 -8 -427 1 -396 -7 -450 126 -61 150 -103 273 -128 370 -77 304 -114
474 -145 655 -18 106 -33 185 -85 455 -14 69 -32 150 -41 180 -9 30 -24 98
-34 150 -17 89 -26 133 -65 305 -9 39 -20 88 -24 110 -5 22 -21 93 -35 159
-14 65 -40 187 -57 270 -56 278 -75 330 -147 404 -53 54 -89 66 -122 39 -55
-44 -102 -115 -125 -189 -28 -89 -70 -269 -85 -368 -5 -36 -14 -85 -20 -110
-33 -148 -82 -464 -95 -605 -3 -38 -12 -117 -20 -175 -25 -179 -47 -456 -55
-675 -4 -115 -12 -228 -18 -250 -29 -114 -37 -511 -33 -1633 4 -1067 3 -1123
-14 -1142 -16 -18 -31 -20 -149 -20 -176 0 -556 -17 -686 -31 -118 -12 -322
-45 -360 -58 -14 -5 -45 -14 -70 -21 -133 -36 -185 -64 -275 -150 l-60 -56
-95 -12 c-170 -21 -335 -117 -505 -294 -117 -122 -148 -162 -218 -277 -141
-234 -181 -462 -111 -638 15 -37 38 -84 51 -103 30 -45 29 -76 -3 -134 -24
-43 -26 -55 -22 -124 5 -71 16 -113 72 -260 31 -83 125 -220 184 -269 31 -26
77 -70 102 -97 129 -141 199 -204 290 -257 127 -75 181 -101 270 -132 113 -39
185 -47 420 -46 347 0 577 21 1165 106 132 20 283 41 335 49 106 15 234 36
325 52 33 6 105 19 160 27 55 9 125 20 155 25 30 5 100 16 155 25 55 9 136 23
180 30 44 8 125 21 180 30 92 16 227 40 535 96 63 12 138 27 165 35 28 7 100
25 160 40 204 49 590 184 705 247 179 98 239 138 327 220 82 77 144 158 169
221 10 27 42 74 70 105 64 70 79 100 117 226 29 97 30 107 35 360 2 167 -2
377 -13 588 -14 288 -16 611 -15 2645 1 1517 -2 2393 -9 2537 -21 431 -43 591
-95 677 -54 91 -121 118 -196 79z m105 -81 c8 -16 15 -48 15 -72 0 -23 7 -76
15 -118 32 -169 46 -507 50 -1224 2 -481 0 -705 -7 -722 -7 -15 -21 -24 -42
-26 -41 -4 -31 -23 12 -22 17 1 32 -4 32 -10 0 -6 0 -796 0 -1756 0 -1464 3
-1764 15 -1865 18 -149 21 -848 4 -892 -6 -15 -14 -48 -19 -73 -4 -25 -18 -70
-30 -100 -12 -30 -24 -64 -27 -75 -13 -47 -42 -58 -75 -28 -27 24 -59 41 -248
130 -100 48 -145 68 -170 77 -8 3 -22 10 -30 14 -14 8 -44 22 -127 58 -18 8
-50 22 -70 31 -37 16 -67 29 -143 60 -19 8 -48 21 -63 29 -16 8 -36 14 -46 14
-9 0 -25 6 -36 14 -11 7 -31 16 -45 19 -14 3 -41 11 -60 17 -19 7 -51 18 -70
25 -19 7 -51 18 -70 25 -19 6 -51 16 -70 20 -19 4 -50 13 -67 19 -18 6 -48 16
-65 22 -18 6 -49 15 -68 19 -19 4 -50 13 -67 19 -18 6 -48 16 -65 22 -18 6
-49 15 -68 19 -78 19 -127 32 -170 46 -25 8 -59 14 -75 14 -17 0 -62 7 -100
15 -82 17 -302 19 -480 5 -66 -6 -183 -15 -260 -20 -77 -5 -156 -14 -175 -20
-19 -5 -56 -10 -81 -10 -25 0 -68 -7 -95 -15 -27 -8 -63 -15 -81 -15 -17 0
-44 -5 -60 -11 -15 -6 -50 -15 -78 -19 -56 -10 -125 -27 -170 -42 -16 -6 -48
-14 -70 -18 -22 -4 -55 -13 -72 -19 -86 -29 -100 -34 -133 -41 -19 -4 -51 -14
-70 -20 -19 -7 -51 -18 -70 -25 -19 -7 -51 -18 -70 -24 -19 -7 -50 -17 -69
-21 -18 -5 -38 -13 -44 -19 -6 -6 -20 -11 -32 -11 -12 0 -30 -7 -41 -15 -10
-8 -27 -15 -37 -15 -11 0 -31 -6 -45 -13 -15 -8 -45 -22 -67 -32 -22 -9 -47
-21 -55 -26 -8 -5 -26 -14 -40 -20 -14 -6 -33 -17 -42 -26 -10 -8 -24 -13 -33
-9 -18 7 -15 24 15 91 33 73 42 168 26 290 -16 126 -29 169 -85 285 -44 91
-113 183 -184 245 -57 51 -162 114 -190 115 -9 0 -25 4 -35 9 -9 6 -29 12 -44
16 -36 7 -36 33 -1 40 57 12 191 48 264 71 26 7 58 14 72 14 13 0 44 7 67 15
23 8 61 15 83 15 22 0 81 6 131 14 118 19 925 41 940 26 12 -12 49 -13 61 -1
6 5 187 11 410 13 335 4 412 7 475 22 138 32 179 47 301 106 83 39 174 131
214 215 56 119 64 192 65 591 0 344 -1 362 -19 378 -11 10 -28 16 -38 14 -16
-3 -18 -14 -17 -88 1 -47 -3 -233 -8 -415 -8 -288 -11 -337 -28 -388 -41 -118
-109 -196 -218 -247 -34 -17 -68 -30 -75 -30 -6 0 -21 -7 -31 -15 -11 -8 -30
-15 -42 -15 -12 0 -38 -7 -57 -15 -20 -8 -51 -15 -68 -15 -18 0 -66 -7 -108
-15 -61 -13 -143 -15 -416 -13 l-340 3 -6 100 c-4 55 -7 511 -8 1014 -1 601
-5 935 -12 976 -7 44 -7 88 1 156 9 79 29 448 34 623 1 58 15 67 49 31 32 -36
81 -32 85 6 4 35 -24 57 -78 61 l-45 3 3 75 c2 41 10 129 18 195 8 66 14 151
14 190 0 38 7 105 15 148 8 43 15 121 15 174 0 52 5 103 10 114 6 11 15 63 20
117 5 53 14 115 19 137 6 22 11 60 11 85 0 25 5 61 11 80 5 19 14 67 19 105
13 106 30 204 46 261 8 28 14 61 14 74 0 12 6 43 14 69 19 59 35 124 46 181
32 162 36 173 58 181 26 10 30 4 43 -64 19 -100 34 -167 59 -267 6 -25 15 -67
19 -95 5 -27 13 -70 19 -95 6 -25 18 -81 27 -125 9 -44 21 -98 26 -120 6 -22
14 -62 19 -90 4 -27 13 -63 19 -78 6 -16 11 -41 11 -56 0 -16 7 -45 15 -64 8
-20 15 -51 15 -69 1 -18 7 -44 15 -58 8 -14 14 -44 15 -67 l0 -43 -42 0 c-55
0 -145 -50 -154 -85 -8 -34 2 -45 42 -45 28 0 46 11 94 55 76 70 90 71 90 6 0
-27 7 -68 15 -91 8 -23 15 -57 15 -75 0 -18 7 -52 15 -75 8 -23 15 -60 15 -81
0 -21 5 -50 11 -66 6 -15 15 -55 19 -88 4 -33 13 -87 19 -120 7 -33 18 -91 26
-130 7 -38 19 -95 25 -125 6 -30 15 -80 19 -111 5 -30 13 -65 20 -77 6 -11 11
-33 11 -49 0 -15 6 -48 14 -73 19 -59 35 -125 45 -175 4 -23 11 -47 16 -55 4
-7 12 -30 16 -49 11 -54 41 -137 75 -204 8 -16 14 -36 14 -45 0 -9 7 -30 15
-46 8 -15 15 -40 15 -55 0 -46 41 -114 75 -124 17 -4 129 -12 250 -17 205 -8
337 -5 855 18 l144 7 23 34 c13 19 26 46 29 60 2 14 9 40 15 56 6 17 15 50 19
75 5 25 13 63 19 85 29 118 41 177 41 207 0 18 7 58 15 88 8 30 15 73 15 95 0
22 7 65 15 95 8 30 15 73 15 95 0 22 5 56 10 75 6 19 15 67 20 105 10 77 26
166 42 235 6 25 14 70 18 100 4 30 13 68 19 83 6 16 11 44 11 63 0 20 5 44 11
56 6 11 15 45 20 77 15 91 51 249 71 306 6 17 14 50 18 75 5 25 14 65 20 90
19 73 39 146 55 203 8 28 16 63 19 77 7 35 26 109 39 150 6 19 14 53 18 75 4
22 11 54 17 70 12 33 29 99 42 160 24 110 87 336 106 383 8 18 14 42 14 53 0
12 6 33 14 47 7 15 22 43 31 63 10 19 33 46 51 58 18 13 40 34 49 47 20 31 31
30 50 -6z m-5023 -5834 c18 -8 40 -17 48 -21 24 -10 52 -28 108 -69 54 -39
172 -183 172 -209 0 -8 7 -20 15 -27 8 -7 15 -19 15 -27 0 -8 6 -27 14 -41 25
-49 38 -116 43 -216 5 -101 -7 -166 -43 -239 -8 -16 -14 -33 -14 -39 0 -5 -13
-30 -30 -55 -16 -24 -30 -46 -30 -49 0 -8 -65 -64 -92 -80 -13 -7 -36 -20 -53
-28 -41 -21 -250 -147 -344 -208 -66 -43 -92 -52 -188 -64 -211 -26 -366 31
-477 174 -24 32 -58 84 -77 117 l-34 60 1 130 c1 100 5 138 18 162 9 18 16 39
16 47 0 14 57 138 83 181 101 165 357 425 418 425 13 0 36 12 51 27 16 15 52
35 81 44 68 22 252 25 299 5z m3052 -572 c21 -8 50 -14 65 -14 14 0 46 -6 71
-14 25 -8 70 -21 100 -30 143 -39 170 -49 177 -59 4 -6 9 -75 10 -152 2 -78
10 -165 18 -196 8 -31 15 -68 15 -81 0 -37 39 -140 63 -165 15 -17 32 -23 61
-23 37 0 46 6 93 56 59 63 189 233 214 279 9 17 19 47 23 67 11 58 30 62 116
22 79 -37 125 -58 175 -78 17 -7 48 -21 70 -30 22 -10 54 -24 70 -31 17 -7 46
-19 65 -28 19 -9 42 -18 50 -21 8 -3 22 -10 30 -14 15 -9 71 -35 100 -46 8 -3
22 -10 30 -15 14 -9 48 -25 203 -95 37 -17 57 -33 57 -44 0 -16 -48 -66 -153
-159 -27 -24 -52 -43 -57 -43 -4 0 -10 -3 -12 -8 -9 -22 -211 -135 -336 -188
-18 -7 -47 -20 -65 -27 -47 -20 -97 -38 -136 -47 -18 -5 -38 -13 -44 -19 -6
-6 -23 -11 -37 -11 -14 0 -35 -7 -46 -15 -10 -8 -30 -15 -44 -15 -14 0 -36 -7
-50 -15 -14 -8 -38 -15 -55 -15 -16 0 -41 -7 -55 -15 -14 -8 -41 -15 -60 -15
-19 0 -46 -7 -60 -15 -14 -8 -42 -14 -62 -15 -20 0 -49 -5 -65 -11 -15 -6 -53
-15 -83 -19 -30 -4 -75 -12 -100 -18 -74 -18 -161 -34 -230 -42 -36 -5 -78
-13 -93 -19 -16 -6 -48 -11 -71 -11 -24 0 -65 -7 -92 -15 -27 -8 -65 -15 -84
-15 -19 0 -60 -7 -90 -15 -30 -8 -73 -15 -95 -15 -22 0 -62 -7 -89 -15 -27 -8
-68 -15 -90 -15 -23 0 -66 -7 -96 -15 -30 -8 -73 -15 -95 -15 -22 0 -56 -5
-75 -11 -19 -6 -64 -14 -100 -19 -36 -4 -90 -12 -120 -18 -155 -30 -231 -42
-266 -42 -22 0 -61 -7 -88 -15 -27 -8 -70 -15 -95 -15 -26 0 -73 -7 -104 -15
-32 -8 -81 -15 -110 -15 -29 0 -79 -7 -112 -15 -33 -8 -86 -14 -118 -15 -32 0
-90 -6 -130 -14 -40 -8 -117 -17 -172 -20 -55 -4 -138 -11 -185 -16 -47 -5
-192 -9 -323 -9 -190 -1 -245 2 -274 14 -19 8 -44 15 -54 15 -10 0 -35 8 -56
17 -70 31 -178 84 -208 104 -16 10 -37 22 -45 26 -17 8 -159 110 -203 146
l-27 22 27 30 c16 17 39 47 53 67 14 21 28 38 31 38 4 0 33 -26 65 -58 102
-101 177 -149 248 -158 41 -6 48 -4 77 25 28 28 31 37 26 72 -3 22 -19 68 -35
102 -16 34 -33 69 -36 77 -3 8 -10 22 -15 30 -5 8 -12 22 -15 30 -3 8 -10 22
-15 30 -5 8 -17 33 -26 55 -10 22 -24 53 -31 68 -8 16 -14 53 -14 83 0 52 1
54 40 74 21 11 47 20 56 20 9 0 28 6 42 14 15 7 47 23 72 35 80 38 250 151
333 220 50 42 222 134 367 197 19 9 48 22 63 30 16 8 35 14 42 14 7 0 26 6 42
14 56 28 104 46 121 46 10 0 23 5 29 11 6 6 26 14 44 19 19 4 50 14 69 21 19
6 51 17 70 24 19 7 51 18 70 25 19 6 51 16 70 20 19 4 49 13 65 18 88 29 135
42 154 42 12 0 32 5 44 12 12 6 42 15 67 19 25 4 63 12 85 18 109 27 135 32
202 41 40 5 90 14 110 19 21 6 63 11 93 11 30 1 75 6 100 11 60 14 478 27 660
21 83 -3 161 -11 184 -18z m648 -180 c14 -8 35 -14 46 -14 11 0 33 -7 48 -15
16 -8 40 -15 54 -15 14 0 36 -7 48 -16 24 -16 30 -44 10 -44 -24 0 -108 -82
-150 -144 -23 -33 -44 -63 -47 -66 -4 -3 -14 -17 -24 -32 -10 -16 -26 -28 -37
-28 -18 0 -20 7 -20 69 0 38 -7 105 -15 148 -15 79 -20 175 -9 186 7 6 58 -9
96 -29z m-4591 -596 c12 -22 123 -108 141 -108 7 0 22 -7 32 -15 11 -8 29 -15
40 -15 12 0 41 -7 65 -16 24 -8 63 -14 87 -13 25 2 49 -2 54 -7 23 -23 -33
-183 -101 -289 -10 -16 -22 -37 -26 -45 -11 -26 -64 -90 -74 -90 -8 0 -72 93
-115 165 -60 101 -134 296 -150 393 -4 23 -11 45 -15 48 -5 3 -9 14 -9 25 0
20 1 20 31 2 17 -10 35 -26 40 -35z m565 -365 c7 -42 49 -139 71 -164 7 -9 18
-30 23 -48 11 -38 1 -40 -67 -10 -26 12 -70 28 -96 36 -52 15 -67 34 -45 56 7
8 22 34 32 58 49 120 70 138 82 72z"/>
<path d="M7114 8499 c-10 -17 -44 -151 -44 -177 0 -13 10 -37 21 -54 l21 -29
23 21 c25 24 38 114 28 200 -5 39 -10 50 -24 50 -10 0 -21 -5 -25 -11z"/>
<path d="M4136 8078 c-2 -7 -9 -48 -15 -90 -10 -66 -10 -81 4 -107 18 -37 24
-38 54 -10 21 19 22 28 17 73 -8 59 -37 146 -49 146 -4 0 -9 -6 -11 -12z"/>
<path d="M6962 7638 c-19 -19 -14 -56 8 -68 33 -18 79 4 80 37 0 34 -63 56
-88 31z"/>
<path d="M7222 7412 c-40 -19 -54 -59 -27 -79 26 -18 37 -17 64 8 16 15 21 30
19 52 -4 36 -12 39 -56 19z"/>
<path d="M3970 7238 c1 -18 78 -72 115 -80 34 -8 75 13 75 38 0 34 -41 53
-117 54 -52 0 -73 -4 -73 -12z"/>
<path d="M6693 7114 c-7 -20 16 -63 45 -82 31 -20 72 -3 72 32 0 47 -101 91
-117 50z"/>
<path d="M6668 6513 c-13 -3 -18 -14 -18 -37 0 -27 6 -35 35 -49 45 -22 58
-21 78 1 22 24 22 59 0 70 -25 13 -74 21 -95 15z"/>
<path d="M4442 6424 c-33 -23 -26 -65 12 -79 26 -9 31 -6 62 29 19 22 34 45
34 53 0 19 -80 17 -108 -3z"/>
<path d="M4094 5206 c-3 -8 11 -38 32 -67 56 -80 69 -92 94 -84 18 6 20 12 15
33 -9 38 -31 69 -63 89 -15 10 -31 23 -35 30 -11 17 -36 16 -43 -1z"/>
<path d="M5265 5203 c-13 -13 -16 -29 -13 -75 5 -73 4 -73 -121 -81 -98 -6
-118 -14 -107 -43 6 -15 18 -16 121 -10 l115 7 0 -106 c0 -87 3 -107 16 -112
31 -11 39 15 39 125 l0 106 32 7 c51 10 99 37 118 65 20 31 13 41 -18 26 -68
-34 -121 -53 -133 -48 -10 4 -14 25 -14 75 0 75 -9 91 -35 64z"/>
<path d="M6705 5117 c-4 -13 -5 -39 -3 -58 2 -26 8 -34 23 -34 18 0 20 7 20
55 0 44 -3 55 -17 58 -11 2 -19 -5 -23 -21z"/>
<path d="M5864 5025 c-3 -14 -10 -25 -14 -25 -5 0 -12 -10 -16 -22 -3 -13 -12
-30 -19 -38 -23 -28 -27 -57 -8 -64 13 -5 25 1 41 21 39 48 64 105 57 130 -7
31 -33 30 -41 -2z"/>
<path d="M6141 4936 c-25 -30 92 -82 129 -57 13 9 13 14 0 38 -13 24 -23 28
-66 31 -35 2 -55 -2 -63 -12z"/>
<path d="M4627 4855 c-15 -18 -27 -41 -27 -49 0 -8 -4 -18 -10 -21 -5 -3 -10
-15 -10 -27 0 -14 5 -18 16 -14 9 3 22 6 29 6 7 0 18 12 24 28 6 15 20 42 31
61 23 37 23 36 -5 45 -15 4 -27 -3 -48 -29z"/>
<path d="M7123 4656 c-59 -67 -91 -156 -57 -156 17 0 74 58 74 76 0 7 8 26 17
43 16 27 16 32 2 46 -14 14 -17 13 -36 -9z"/>
<path d="M6075 4625 c-27 -8 -62 -14 -76 -15 -14 0 -34 -7 -45 -15 -10 -8 -26
-14 -34 -15 -8 0 -49 -17 -90 -37 -54 -27 -96 -59 -152 -114 -131 -131 -178
-224 -194 -388 -9 -83 25 -394 45 -414 6 -6 11 -18 11 -27 0 -32 74 -154 126
-210 32 -34 58 -50 136 -84 49 -22 270 -22 351 -1 32 8 65 15 73 15 21 0 122
45 196 87 43 24 108 85 140 131 44 64 88 151 88 175 0 10 7 44 16 75 13 43 15
80 11 162 -14 253 -77 432 -196 551 -71 70 -118 96 -223 122 -79 20 -116 20
-183 2z m226 -148 c87 -38 199 -183 199 -258 0 -38 -12 -36 -63 9 -79 71 -124
95 -185 100 -41 3 -69 13 -101 34 -61 41 -136 56 -193 38 -75 -23 -144 -60
-178 -95 -19 -19 -40 -35 -47 -35 -7 0 -13 -6 -13 -13 0 -20 -27 -53 -36 -44
-4 4 2 21 14 37 12 16 22 32 22 34 0 3 20 25 43 49 37 37 72 62 147 106 29 17
101 44 138 52 57 12 212 3 253 -14z m-136 -177 c11 -13 25 -18 37 -14 11 3 20
0 24 -10 3 -9 12 -16 18 -16 25 0 143 -133 169 -190 4 -8 11 -22 16 -30 29
-49 41 -97 41 -161 0 -56 -5 -77 -24 -107 -58 -92 -174 -141 -355 -149 -83 -4
-112 -1 -145 12 -124 51 -176 109 -205 228 -14 59 -13 106 2 177 17 75 39 112
94 160 51 43 68 54 148 94 65 33 153 36 180 6z m-434 -653 c50 -48 97 -83 144
-106 64 -32 77 -35 190 -39 91 -3 135 0 184 12 35 9 66 14 69 12 12 -12 -11
-38 -45 -52 -21 -8 -46 -19 -56 -25 -28 -15 -175 -39 -248 -39 -81 0 -151 22
-205 66 -50 40 -114 156 -114 208 0 20 2 36 4 36 2 0 36 -33 77 -73z m639
-115 c0 -13 -12 -22 -22 -16 -10 6 -1 24 13 24 5 0 9 -4 9 -8z"/>
<path d="M6057 4248 c-22 -6 -56 -29 -82 -55 -37 -37 -45 -51 -45 -82 0 -40
33 -79 97 -114 65 -36 155 -11 207 58 25 32 28 43 24 91 -6 73 -34 100 -108
107 -30 3 -72 1 -93 -5z m73 -113 c0 -16 -27 -32 -37 -21 -7 7 16 36 28 36 5
0 9 -7 9 -15z"/>
<path d="M4420 4420 c-8 -5 -46 -19 -85 -32 -109 -35 -136 -60 -189 -181 -24
-55 -22 -191 4 -248 28 -63 128 -188 175 -220 97 -66 255 -55 406 27 42 22
107 92 128 137 37 78 43 134 27 226 -8 46 -19 88 -25 94 -6 6 -11 18 -11 27 0
20 -77 109 -104 121 -12 5 -28 13 -36 18 -66 38 -81 41 -177 41 -54 0 -105 -5
-113 -10z m95 -140 c9 -15 -32 -50 -59 -50 -30 0 -40 13 -31 40 5 15 15 20 45
20 21 0 41 -4 45 -10z m-122 -107 c-18 -6 -16 -49 2 -77 17 -25 59 -38 93 -29
27 7 54 48 62 93 4 28 10 36 31 38 23 3 28 -2 42 -44 14 -42 14 -51 -1 -94
-10 -26 -30 -63 -45 -81 -24 -30 -34 -34 -75 -34 -40 0 -55 6 -104 44 -69 52
-86 92 -69 158 9 31 17 43 34 45 25 5 50 -12 30 -19z"/>
<path d="M3968 3755 c-10 -11 10 -66 29 -81 23 -17 44 -17 67 -1 21 16 15 52
-12 66 -25 13 -77 23 -84 16z"/>
<path d="M6508 3327 c-21 -5 -38 -13 -38 -18 0 -5 -5 -9 -11 -9 -6 0 -25 -7
-42 -15 -37 -16 -113 -44 -142 -51 -11 -3 -42 -11 -70 -19 -191 -53 -325 -76
-435 -74 -86 2 -95 0 -112 -21 -39 -48 32 -73 172 -60 129 13 226 27 239 34 5
4 29 10 53 15 69 15 294 107 318 131 3 3 27 16 54 30 71 37 80 73 14 57z"/>
<path d="M5013 3308 c-42 -46 -82 -123 -76 -146 3 -12 10 -22 15 -22 13 0 58
51 58 66 0 7 4 14 8 16 13 5 52 74 52 92 0 23 -33 20 -57 -6z"/>
<path d="M4673 3223 c-14 -35 -9 -105 8 -116 31 -20 69 1 89 49 29 67 27 78
-15 70 -19 -4 -44 -2 -55 4 -16 9 -22 8 -27 -7z"/>
<path d="M6536 3051 c-6 -9 -43 -27 -151 -76 -29 -13 -75 -30 -160 -62 -22 -8
-53 -20 -70 -27 -55 -23 -98 -35 -106 -30 -5 2 -11 21 -14 42 -11 63 -16 72
-36 72 -15 0 -19 -7 -19 -32 0 -18 7 -46 15 -61 13 -26 13 -28 -8 -36 -12 -5
-39 -11 -59 -15 -60 -11 -86 -49 -52 -77 28 -23 214 16 359 77 78 32 248 124
265 143 7 8 39 28 68 43 12 6 21 19 20 27 -4 18 -43 27 -52 12z"/>
<path d="M6727 3036 c-9 -13 -22 -29 -29 -37 -53 -55 -70 -129 -29 -129 34 0
111 116 111 169 0 29 -33 28 -53 -3z"/>
<path d="M2836 2984 c-12 -33 -6 -55 20 -64 48 -19 87 33 52 68 -17 17 -65 15
-72 -4z"/>
<path d="M4010 2953 c0 -11 53 -77 94 -115 57 -55 121 -52 96 4 -21 45 -190
144 -190 111z"/>
<path d="M6318 2702 c-82 -50 -148 -104 -148 -120 0 -6 9 -14 20 -17 35 -11
115 39 218 134 71 66 18 68 -90 3z"/>
<path d="M3243 2648 c22 -57 117 -108 117 -61 0 28 -84 93 -120 93 -4 0 -3
-14 3 -32z"/>
<path d="M7005 2444 c-41 -21 -75 -54 -86 -83 -10 -26 -3 -61 12 -61 11 0 13
2 86 71 26 25 54 48 62 51 22 7 5 38 -21 38 -13 0 -36 -7 -53 -16z"/>
<path d="M2793 2414 c-12 -5 78 -93 116 -113 22 -12 51 -5 51 13 -1 19 -23 41
-78 74 -51 31 -65 35 -89 26z"/>
<path d="M2010 2421 c-33 -8 -70 -33 -70 -47 0 -6 -7 -17 -14 -24 -8 -6 -16
-33 -18 -58 -2 -26 -7 -46 -13 -46 -5 1 -22 4 -37 8 -26 6 -26 5 -14 -19 36
-69 133 -119 231 -120 112 0 156 46 141 150 -5 33 -19 55 -59 98 -54 58 -91
72 -147 58z m79 -177 c-17 -20 -63 -14 -67 9 -2 10 2 24 8 32 11 13 16 12 42
-6 23 -17 27 -24 17 -35z"/>
<path d="M1603 2349 c-109 -54 -110 -190 -2 -283 53 -45 95 -48 145 -10 53 41
77 87 69 132 -14 75 -31 116 -61 149 -38 40 -86 44 -151 12z m85 -129 c23 -22
20 -50 -7 -50 -24 0 -41 20 -41 47 0 28 19 30 48 3z"/>
<path d="M3313 1793 c-33 -13 -12 -32 111 -101 55 -31 160 -42 169 -18 5 12
-1 20 -21 28 -15 7 -40 21 -57 32 -49 34 -175 71 -202 59z"/>
<path d="M4754 1756 c-6 -16 7 -42 42 -83 11 -11 26 -31 34 -43 31 -47 66 -79
104 -94 48 -20 66 -20 66 -1 0 8 -4 15 -10 15 -5 0 -10 7 -10 15 0 17 -67 87
-149 155 -64 54 -69 56 -77 36z"/>
<path d="M6392 1551 c-6 -3 -16 -18 -21 -31 -6 -14 -15 -32 -19 -40 -25 -44
-32 -62 -32 -85 0 -14 3 -25 8 -25 14 0 62 51 62 67 0 9 6 24 14 32 20 24 28
78 12 84 -7 3 -18 2 -24 -2z"/>
<path d="M2355 1459 c-4 -6 2 -20 13 -32 10 -12 28 -32 38 -45 11 -13 50 -50
87 -84 52 -46 71 -58 80 -49 9 9 5 22 -13 56 -14 25 -28 45 -32 45 -3 0 -9 8
-13 18 -7 24 -112 102 -136 102 -10 0 -21 -5 -24 -11z"/>
<path d="M2858 1219 c-23 -13 -23 -51 0 -72 24 -22 34 -21 61 4 45 42 -6 100
-61 68z"/>
<path d="M3752 1116 c-12 -24 -22 -48 -22 -53 0 -6 -7 -24 -15 -39 -22 -42
-18 -104 6 -104 43 0 88 127 80 223 -2 31 -27 18 -49 -27z"/>
<path d="M2393 863 c-20 -7 -15 -31 7 -43 19 -10 72 -8 138 6 25 5 30 29 6 38
-18 7 -133 7 -151 -1z"/>
</g>
</svg>
